<svg xmlns="http://www.w3.org/2000/svg" xmlns:xlink="http://www.w3.org/1999/xlink" width="500" zoomAndPan="magnify" viewBox="0 0 375 374.999991" height="500" preserveAspectRatio="xMidYMid meet" version="1.0"><defs><g/><clipPath id="c623b6c9ad"><path d="M 7.242188 7.242188 L 367.992188 7.242188 L 367.992188 367.992188 L 7.242188 367.992188 Z M 7.242188 7.242188 " clip-rule="nonzero"/></clipPath><clipPath id="226ace47b6"><path d="M 13.421875 14.429688 L 361.421875 14.429688 L 361.421875 362.429688 L 13.421875 362.429688 Z M 13.421875 14.429688 " clip-rule="nonzero"/></clipPath><clipPath id="c1505c1220"><path d="M 13.421875 87.929688 L 13.421875 289.085938 C 13.421875 329.679688 46.328125 362.585938 86.921875 362.585938 L 288.078125 362.585938 C 328.671875 362.585938 361.578125 329.679688 361.578125 289.085938 L 361.578125 87.929688 C 361.578125 47.335938 328.671875 14.429688 288.078125 14.429688 L 86.921875 14.429688 C 46.328125 14.429688 13.421875 47.335938 13.421875 87.929688 Z M 13.421875 87.929688 " clip-rule="nonzero"/></clipPath><clipPath id="a7955e28e8"><path d="M 96.796875 62.402344 L 265.429688 62.402344 L 265.429688 245.402344 L 96.796875 245.402344 Z M 96.796875 62.402344 " clip-rule="nonzero"/></clipPath><clipPath id="30b952aedc"><path d="M 11.972656 187.5 L 361.675781 187.5 L 361.675781 253.277344 L 11.972656 253.277344 Z M 11.972656 187.5 " clip-rule="nonzero"/></clipPath><clipPath id="a03970e023"><path d="M 37.472656 187.5 L 336.078125 187.5 C 350.160156 187.5 361.578125 198.917969 361.578125 213 L 361.578125 227.777344 C 361.578125 241.859375 350.160156 253.277344 336.078125 253.277344 L 37.472656 253.277344 C 23.390625 253.277344 11.972656 241.859375 11.972656 227.777344 L 11.972656 213 C 11.972656 198.917969 23.390625 187.5 37.472656 187.5 Z M 37.472656 187.5 " clip-rule="nonzero"/></clipPath><clipPath id="b6296ded7e"><path d="M 11.972656 187.5 L 361.472656 187.5 L 361.472656 253.5 L 11.972656 253.5 Z M 11.972656 187.5 " clip-rule="nonzero"/></clipPath><clipPath id="141ffe1aef"><path d="M 37.472656 187.5 L 336.070312 187.5 C 350.152344 187.5 361.566406 198.917969 361.566406 213 L 361.566406 227.777344 C 361.566406 241.859375 350.152344 253.277344 336.070312 253.277344 L 37.472656 253.277344 C 23.390625 253.277344 11.972656 241.859375 11.972656 227.777344 L 11.972656 213 C 11.972656 198.917969 23.390625 187.5 37.472656 187.5 Z M 37.472656 187.5 " clip-rule="nonzero"/></clipPath><clipPath id="73916cc2d5"><path d="M 18.210938 187.5 L 350.953125 187.5 L 350.953125 253.277344 L 18.210938 253.277344 Z M 18.210938 187.5 " clip-rule="nonzero"/></clipPath><clipPath id="25e4db174e"><path d="M 28.710938 187.5 L 340.335938 187.5 C 346.132812 187.5 350.835938 192.199219 350.835938 198 L 350.835938 242.777344 C 350.835938 248.578125 346.132812 253.277344 340.335938 253.277344 L 28.710938 253.277344 C 22.910156 253.277344 18.210938 248.578125 18.210938 242.777344 L 18.210938 198 C 18.210938 192.199219 22.910156 187.5 28.710938 187.5 Z M 28.710938 187.5 " clip-rule="nonzero"/></clipPath><clipPath id="5cafc0b122"><path d="M 18.210938 187.5 L 351 187.5 L 351 253.5 L 18.210938 253.5 Z M 18.210938 187.5 " clip-rule="nonzero"/></clipPath><clipPath id="f7bc3d86d3"><path d="M 28.710938 187.5 L 340.332031 187.5 C 346.132812 187.5 350.832031 192.199219 350.832031 198 L 350.832031 242.777344 C 350.832031 248.578125 346.132812 253.277344 340.332031 253.277344 L 28.710938 253.277344 C 22.910156 253.277344 18.210938 248.578125 18.210938 242.777344 L 18.210938 198 C 18.210938 192.199219 22.910156 187.5 28.710938 187.5 Z M 28.710938 187.5 " clip-rule="nonzero"/></clipPath><clipPath id="526a3d6e11"><path d="M 132 263.101562 L 234.746094 263.101562 L 234.746094 339.601562 L 132 339.601562 Z M 132 263.101562 " clip-rule="nonzero"/></clipPath><clipPath id="bd579ea51b"><path d="M 202 250 L 268 250 L 268 328 L 202 328 Z M 202 250 " clip-rule="nonzero"/></clipPath><clipPath id="468e96dbce"><path d="M 230.4375 245.460938 L 271.992188 311.46875 L 238.988281 332.246094 L 197.433594 266.238281 Z M 230.4375 245.460938 " clip-rule="nonzero"/></clipPath><clipPath id="155aafd087"><path d="M 230.4375 245.460938 L 271.992188 311.46875 L 238.988281 332.246094 L 197.433594 266.238281 Z M 230.4375 245.460938 " clip-rule="nonzero"/></clipPath><clipPath id="7f4ec742b9"><path d="M 230.4375 245.460938 L 271.992188 311.46875 L 238.988281 332.246094 L 197.433594 266.238281 Z M 230.4375 245.460938 " clip-rule="nonzero"/></clipPath></defs><rect x="-37.5" width="450" fill="#ffffff" y="-37.499999" height="449.999989" fill-opacity="1"/><rect x="-37.5" width="450" fill="#b0883c" y="-37.499999" height="449.999989" fill-opacity="1"/><g clip-path="url(#c623b6c9ad)"><path fill="#dba847" d="M 187.496094 7.242188 C 88.042969 7.242188 7.242188 88.042969 7.242188 187.496094 C 7.242188 286.945312 88.042969 367.746094 187.496094 367.746094 C 286.945312 367.746094 367.746094 286.945312 367.746094 187.496094 C 367.746094 88.042969 286.945312 7.242188 187.496094 7.242188 Z M 187.496094 15.078125 C 282.816406 15.078125 359.910156 92.171875 359.910156 187.496094 C 359.910156 282.816406 282.816406 359.910156 187.496094 359.910156 C 92.171875 359.910156 15.078125 282.816406 15.078125 187.496094 C 15.078125 92.171875 92.171875 15.078125 187.496094 15.078125 Z M 187.496094 15.078125 " fill-opacity="1" fill-rule="nonzero"/></g><g clip-path="url(#226ace47b6)"><g clip-path="url(#c1505c1220)"><path fill="#000000" d="M 187.421875 14.429688 C 91.417969 14.429688 13.421875 92.425781 13.421875 188.429688 C 13.421875 284.433594 91.417969 362.429688 187.421875 362.429688 C 283.425781 362.429688 361.421875 284.433594 361.421875 188.429688 C 361.421875 92.425781 283.425781 14.429688 187.421875 14.429688 Z M 187.421875 21.996094 C 279.4375 21.996094 353.855469 96.414062 353.855469 188.429688 C 353.855469 280.445312 279.4375 354.863281 187.421875 354.863281 C 95.40625 354.863281 20.988281 280.445312 20.988281 188.429688 C 20.988281 96.414062 95.40625 21.996094 187.421875 21.996094 Z M 187.421875 21.996094 " fill-opacity="1" fill-rule="nonzero"/></g></g><g clip-path="url(#a7955e28e8)"><path fill="#000000" d="M 249.558594 62.414062 L 249.132812 62.414062 C 246.613281 62.902344 244.679688 64.226562 243.332031 66.394531 C 243.207031 66.59375 243.046875 66.761719 242.855469 66.902344 C 236.558594 71.5 230.273438 76.121094 224 80.761719 C 222.984375 81.515625 222.265625 81.898438 221.851562 81.910156 C 214.480469 82.175781 208.175781 85.117188 202.863281 90.21875 C 199.558594 93.394531 196.726562 97.332031 193.335938 100.105469 C 190.449219 102.46875 187.269531 103.105469 183.289062 103.566406 C 181.589844 103.765625 179.875 103.867188 178.148438 103.878906 C 177.652344 103.882812 177.636719 103.976562 178.097656 104.152344 C 179.777344 104.796875 181.625 105.375 183.644531 105.878906 C 183.820312 105.925781 183.933594 105.992188 183.976562 106.082031 C 184.054688 106.242188 184.007812 106.339844 183.835938 106.382812 C 179.605469 107.429688 175.460938 108.476562 171.398438 109.53125 C 169.269531 110.082031 161.769531 111.808594 162.695312 115.117188 C 163.402344 117.644531 168.710938 120.644531 170.925781 121.832031 C 173.941406 123.453125 176.984375 124.9375 180.046875 126.277344 C 180.125 126.3125 180.167969 126.367188 180.179688 126.453125 C 180.191406 126.535156 180.164062 126.601562 180.101562 126.65625 L 167.203125 137.167969 C 167.058594 137.28125 167.078125 137.339844 167.265625 137.332031 L 177.199219 137.015625 C 177.335938 137.011719 177.367188 137.070312 177.296875 137.1875 C 176.953125 137.757812 176.394531 138.042969 175.988281 138.382812 C 168.761719 144.433594 160.027344 149.726562 150.742188 151.800781 C 150.414062 151.875 150.414062 151.9375 150.746094 151.992188 C 153.386719 152.410156 156.441406 152.4375 161.015625 152.28125 C 163.800781 152.191406 167 151.617188 170.617188 150.570312 C 170.722656 150.539062 170.789062 150.578125 170.8125 150.6875 L 170.832031 150.785156 C 170.847656 150.859375 170.820312 150.914062 170.753906 150.945312 C 169.828125 151.382812 168.019531 152.296875 165.324219 153.683594 C 159.414062 156.726562 152.644531 159.386719 145.011719 161.667969 C 143.746094 162.046875 142.695312 162.328125 141.859375 162.511719 C 140.875 162.726562 140.882812 162.898438 141.878906 163.027344 C 146.339844 163.601562 150.816406 164.03125 155.308594 164.316406 C 155.753906 164.347656 155.78125 164.46875 155.386719 164.679688 C 145.316406 170.089844 134.980469 174.949219 124.382812 179.257812 C 124.085938 179.378906 124.097656 179.4375 124.417969 179.4375 C 126.269531 179.441406 127.847656 179.402344 129.976562 179.222656 C 131.308594 179.109375 132.683594 179.125 133.964844 179 C 134.8125 178.917969 135.65625 178.847656 136.507812 178.789062 C 137.15625 178.746094 137.972656 178.433594 138.789062 178.597656 C 138.863281 178.609375 138.90625 178.65625 138.921875 178.730469 C 138.9375 178.804688 138.914062 178.859375 138.851562 178.902344 C 135.921875 180.914062 133.144531 183.074219 130.523438 185.382812 C 127.871094 187.71875 125.925781 189.519531 124.6875 190.785156 C 116.523438 199.160156 109.878906 208.601562 104.761719 219.113281 C 101.835938 225.121094 99.175781 231.277344 96.785156 237.585938 C 96.707031 237.789062 96.757812 237.828125 96.933594 237.699219 L 138.707031 206.882812 C 138.785156 206.824219 138.875 206.800781 138.976562 206.808594 C 139.074219 206.816406 139.15625 206.859375 139.222656 206.929688 L 155.46875 224.28125 C 155.558594 224.375 155.664062 224.425781 155.792969 224.4375 C 155.917969 224.445312 156.03125 224.410156 156.128906 224.328125 L 178.980469 205.9375 C 179.074219 205.863281 179.160156 205.867188 179.242188 205.953125 C 180.742188 207.519531 182.21875 209.109375 183.671875 210.722656 C 192.453125 220.457031 201.238281 230.1875 210.019531 239.917969 C 211.644531 241.71875 213.242188 243.539062 214.816406 245.390625 L 214.992188 245.390625 C 214.96875 244.828125 214.960938 244.328125 215.0625 243.742188 C 215.3125 242.328125 215.273438 240.617188 215.371094 239.523438 C 215.761719 235.117188 216.410156 230.75 217.3125 226.417969 C 217.851562 223.816406 219.109375 221.792969 220.328125 219.4375 C 223.109375 214.050781 225.285156 207.636719 225.523438 201.542969 C 225.550781 200.871094 225.789062 199.535156 225.652344 198.511719 C 225.566406 197.851562 225.519531 197.378906 225.507812 197.097656 C 225.445312 194.882812 225.089844 192.742188 224.449219 190.664062 C 224.390625 190.484375 224.449219 190.355469 224.625 190.277344 L 230.089844 187.847656 C 230.136719 187.828125 230.160156 187.792969 230.160156 187.742188 C 230.160156 187.691406 230.140625 187.65625 230.09375 187.632812 L 219.84375 182.40625 C 219.804688 182.386719 219.769531 182.386719 219.730469 182.410156 C 219.695312 182.433594 219.675781 182.464844 219.675781 182.507812 C 219.644531 184.40625 219.894531 186.355469 219.9375 188.152344 C 219.996094 190.597656 220.304688 193.003906 220.238281 195.402344 C 220.230469 195.710938 220.09375 195.789062 219.824219 195.632812 L 214.796875 192.746094 C 214.40625 192.519531 214.300781 192.613281 214.480469 193.027344 C 215.824219 196.128906 217.46875 199.132812 218.851562 202.246094 C 219.167969 202.953125 219.578125 203.652344 219.917969 204.320312 C 220.269531 205.015625 220.15625 205.101562 219.574219 204.582031 C 217.507812 202.726562 215.472656 200.5625 213.472656 198.085938 C 209.664062 193.378906 206.34375 188.347656 203.515625 182.992188 C 203.402344 182.773438 203.316406 182.527344 203.257812 182.257812 C 203.246094 182.199219 203.261719 182.15625 203.3125 182.121094 C 203.359375 182.089844 203.410156 182.085938 203.464844 182.117188 L 216.207031 189.332031 C 216.265625 189.359375 216.3125 189.351562 216.351562 189.300781 C 216.390625 189.253906 216.390625 189.207031 216.355469 189.15625 C 216.105469 188.863281 216.144531 188.5625 216.054688 188.296875 C 213.453125 180.410156 210.597656 172.613281 207.496094 164.910156 C 207.238281 164.269531 206.660156 163.238281 206.40625 162.316406 C 206.371094 162.183594 206.414062 162.148438 206.535156 162.21875 C 206.835938 162.394531 207.101562 162.605469 207.328125 162.863281 C 208.503906 164.15625 209.660156 165.496094 210.875 166.71875 C 216.378906 172.285156 220.378906 176.332031 225.960938 180.792969 C 230.34375 184.300781 234.589844 187.308594 239.542969 189.339844 C 239.679688 189.394531 239.722656 189.355469 239.671875 189.21875 C 237.996094 184.570312 236.886719 179.753906 236.347656 174.769531 C 236.277344 174.117188 236.269531 173.503906 236.324219 172.925781 C 236.332031 172.84375 236.371094 172.785156 236.445312 172.746094 C 236.515625 172.710938 236.585938 172.710938 236.660156 172.75 L 243.300781 176.453125 C 243.617188 176.628906 243.699219 176.554688 243.542969 176.226562 C 240.042969 168.773438 236.027344 161.613281 231.496094 154.742188 C 231.429688 154.644531 231.386719 154.652344 231.359375 154.769531 C 231.140625 155.761719 230.988281 156.542969 230.90625 157.113281 C 230.277344 161.503906 229.847656 166.101562 230.105469 170.535156 C 230.171875 171.769531 230.152344 173.117188 230.246094 174.234375 C 230.441406 176.527344 230.78125 178.796875 231.265625 181.050781 C 231.328125 181.332031 231.351562 181.523438 231.332031 181.625 C 231.273438 181.933594 231.175781 181.949219 231.042969 181.671875 C 227.289062 174.042969 224.785156 165.058594 224.039062 156.601562 C 223.976562 155.90625 223.792969 155.214844 223.769531 154.554688 C 223.726562 153.210938 223.757812 152.039062 223.597656 150.585938 C 223.394531 148.71875 223.734375 146.832031 223.730469 145.136719 C 223.730469 144.019531 223.707031 142.996094 223.945312 141.898438 C 224.011719 141.597656 223.929688 141.546875 223.699219 141.757812 L 215.707031 148.996094 C 215.683594 149.015625 215.660156 149.019531 215.632812 149.007812 C 215.605469 148.996094 215.589844 148.976562 215.589844 148.949219 L 215.464844 142.3125 C 215.460938 142.003906 215.363281 141.972656 215.175781 142.214844 C 211.777344 146.601562 208.890625 151.363281 206.746094 156.53125 C 206.554688 157 206.417969 156.984375 206.335938 156.484375 C 205.738281 152.8125 205.257812 149.015625 205.332031 145.441406 C 205.550781 135.109375 209.582031 126.78125 214.6875 118.160156 C 214.78125 117.996094 214.738281 117.949219 214.5625 118.007812 L 203.707031 121.714844 C 203.101562 121.921875 203.042969 121.816406 203.53125 121.398438 C 210.105469 115.796875 215.300781 110.847656 222.449219 103.535156 C 223.527344 102.425781 224.734375 100.855469 225.691406 99.964844 C 226.550781 99.164062 227.359375 98.316406 228.117188 97.421875 C 228.210938 97.3125 228.269531 97.253906 228.285156 97.253906 C 228.492188 97.25 228.546875 97.339844 228.453125 97.523438 C 223.78125 106.363281 220.40625 115.675781 218.332031 125.46875 C 218.308594 125.570312 218.351562 125.617188 218.457031 125.613281 C 218.542969 125.605469 218.605469 125.523438 218.648438 125.363281 C 218.679688 125.261719 218.71875 125.179688 218.769531 125.109375 C 219.734375 123.8125 220.703125 122.511719 221.671875 121.207031 C 221.882812 120.925781 221.96875 120.957031 221.9375 121.308594 L 220.339844 139.121094 C 220.316406 139.351562 220.390625 139.390625 220.5625 139.234375 C 222.082031 137.847656 223.632812 136.390625 225.210938 134.871094 C 225.453125 134.636719 225.757812 134.421875 226.121094 134.226562 C 226.230469 134.167969 226.339844 134.164062 226.453125 134.210938 C 226.566406 134.253906 226.644531 134.335938 226.679688 134.457031 C 226.886719 135.121094 227.152344 135.792969 227.476562 136.464844 C 231.492188 144.832031 236.402344 152.628906 242.207031 159.859375 C 243.132812 161.015625 244.339844 162.324219 245.382812 163.582031 C 245.480469 163.707031 245.671875 163.855469 245.945312 164.035156 C 246.019531 164.085938 246.046875 164.066406 246.019531 163.980469 C 243.304688 155.296875 240.554688 147.375 240.25 138.65625 C 240.230469 138.140625 240.304688 137 240.480469 135.226562 C 240.632812 133.671875 241.199219 131.855469 242.1875 129.777344 C 244.464844 124.984375 247.976562 120.851562 251.6875 117.175781 C 255.242188 113.652344 259.140625 110.472656 262.367188 106.625 C 264.445312 104.144531 265.429688 101.730469 265.195312 98.460938 C 265.039062 96.332031 263.378906 95.605469 261.503906 95.511719 C 261.324219 95.503906 261.214844 95.40625 261.1875 95.226562 C 260.976562 93.902344 260.746094 92.59375 260.496094 91.300781 C 260.472656 91.191406 260.425781 91.105469 260.347656 91.054688 C 260.300781 91.023438 260.253906 91.015625 260.199219 91.035156 C 260.148438 91.054688 260.113281 91.089844 260.097656 91.140625 C 259.628906 92.585938 259.15625 94.023438 258.683594 95.457031 C 258.339844 96.5 256.96875 96.851562 256.140625 97.335938 C 253.519531 98.882812 250.96875 100.535156 248.492188 102.300781 C 248.445312 102.335938 248.394531 102.339844 248.34375 102.3125 C 248.289062 102.289062 248.265625 102.246094 248.265625 102.1875 C 248.238281 98.113281 249.675781 95.019531 252.039062 91.269531 C 253.796875 88.488281 256.074219 85.121094 256.910156 82.308594 C 258.023438 78.5625 257.339844 75.023438 254.863281 71.695312 C 254.585938 71.320312 254.285156 70.765625 254.179688 70.316406 C 253.671875 68.164062 253.027344 65.136719 251.722656 63.492188 C 251.273438 62.921875 250.550781 62.5625 249.558594 62.414062 Z M 222.234375 87.714844 C 222.84375 87.542969 223.679688 87.195312 224.429688 87.066406 C 224.75 87.011719 224.808594 87.109375 224.601562 87.367188 C 224 88.09375 223.21875 88.707031 222.621094 89.441406 C 221.707031 90.570312 220.21875 92.453125 218.777344 92.828125 C 217.402344 93.183594 216.050781 93.582031 214.714844 94.015625 C 214.359375 94.132812 214.289062 94.039062 214.503906 93.734375 C 215.457031 92.382812 216.496094 91 217.621094 89.585938 C 218.542969 88.429688 220.828125 88.109375 222.234375 87.714844 Z M 222.234375 87.714844 " fill-opacity="1" fill-rule="nonzero"/></g><g clip-path="url(#30b952aedc)"><g clip-path="url(#a03970e023)"><path fill="#b0883c" d="M 11.972656 187.5 L 361.675781 187.5 L 361.675781 253.277344 L 11.972656 253.277344 Z M 11.972656 187.5 " fill-opacity="1" fill-rule="nonzero"/></g></g><g clip-path="url(#b6296ded7e)"><g clip-path="url(#141ffe1aef)"><path stroke-linecap="butt" transform="matrix(0.75, 0, 0, 0.75, 11.974279, 187.500648)" fill="none" stroke-linejoin="miter" d="M 33.99784 -0.000863583 L 432.1281 -0.000863583 C 450.904144 -0.000863583 466.122896 15.223097 466.122896 33.999141 L 466.122896 53.702268 C 466.122896 72.478312 450.904144 87.702273 432.1281 87.702273 L 33.99784 87.702273 C 15.221796 87.702273 -0.00216409 72.478312 -0.00216409 53.702268 L -0.00216409 33.999141 C -0.00216409 15.223097 15.221796 -0.000863583 33.99784 -0.000863583 Z M 33.99784 -0.000863583 " stroke="#dba847" stroke-width="152" stroke-opacity="1" stroke-miterlimit="4"/></g></g><g clip-path="url(#73916cc2d5)"><g clip-path="url(#25e4db174e)"><path fill="#b0883c" d="M 18.210938 187.5 L 350.953125 187.5 L 350.953125 253.277344 L 18.210938 253.277344 Z M 18.210938 187.5 " fill-opacity="1" fill-rule="nonzero"/></g></g><g clip-path="url(#5cafc0b122)"><g clip-path="url(#f7bc3d86d3)"><path stroke-linecap="butt" transform="matrix(0.75, 0, 0, 0.75, 18.20998, 187.499988)" fill="none" stroke-linejoin="miter" d="M 14.001279 0.0000164167 L 429.496125 0.0000164167 C 437.230501 0.0000164167 443.496126 6.265642 443.496126 14.000018 L 443.496126 73.703151 C 443.496126 81.437527 437.230501 87.703153 429.496125 87.703153 L 14.001279 87.703153 C 6.266903 87.703153 0.00127727 81.437527 0.00127727 73.703151 L 0.00127727 14.000018 C 0.00127727 6.265642 6.266903 0.0000164167 14.001279 0.0000164167 Z M 14.001279 0.0000164167 " stroke="#000000" stroke-width="14" stroke-opacity="1" stroke-miterlimit="4"/></g></g><g clip-path="url(#526a3d6e11)"><path fill="#1c1c1c" d="M 234.449219 324.585938 C 234.308594 323.996094 234.226562 323.792969 234.132812 323.460938 L 233.84375 322.527344 L 231.527344 315.042969 L 226.894531 300.066406 L 225.734375 296.320312 L 225.15625 294.445312 C 224.859375 293.484375 224.375 292.570312 223.734375 291.785156 C 222.71875 290.515625 221.296875 289.601562 219.75 289.167969 C 219.769531 288.34375 219.703125 287.503906 219.527344 286.671875 C 219.144531 284.859375 218.234375 283.09375 216.894531 281.722656 C 216.550781 281.390625 216.21875 281.03125 215.828125 280.761719 C 215.453125 280.472656 215.070312 280.171875 214.652344 279.957031 L 214.023438 279.613281 C 213.816406 279.496094 213.59375 279.421875 213.378906 279.328125 L 212.726562 279.0625 C 212.503906 278.984375 212.28125 278.929688 212.058594 278.859375 C 210.929688 278.53125 209.769531 278.386719 208.636719 278.386719 C 207.789062 276.945312 206.625 275.769531 205.34375 274.855469 C 204.261719 274.097656 203.078125 273.515625 201.824219 273.132812 C 201.339844 272.273438 200.792969 271.433594 200.179688 270.644531 C 199.203125 269.410156 198.09375 268.253906 196.828125 267.269531 C 195.570312 266.265625 194.167969 265.429688 192.667969 264.804688 C 191.171875 264.167969 189.589844 263.738281 187.972656 263.535156 C 184.746094 263.101562 181.421875 263.507812 178.355469 264.792969 C 176.828125 265.441406 175.375 266.339844 174.074219 267.511719 C 173.347656 268.160156 172.675781 268.925781 172.109375 269.789062 C 171.019531 269.539062 169.886719 269.425781 168.769531 269.484375 C 166.828125 269.582031 164.917969 270.121094 163.246094 271.089844 C 161.578125 272.050781 160.121094 273.414062 159.121094 275.101562 C 158.558594 276.019531 158.148438 277.046875 157.914062 278.101562 C 156.683594 278.191406 155.476562 278.476562 154.351562 278.914062 C 153.085938 279.386719 151.914062 280.113281 150.882812 280.992188 C 149.839844 281.855469 148.957031 282.941406 148.304688 284.148438 C 147.417969 285.691406 147.019531 287.457031 147.003906 289.167969 C 145.457031 289.601562 144.035156 290.523438 143.007812 291.792969 C 142.367188 292.578125 141.882812 293.503906 141.59375 294.457031 L 141.011719 296.332031 L 139.855469 300.074219 L 135.222656 315.046875 L 132.90625 322.535156 L 132.617188 323.46875 C 132.523438 323.800781 132.441406 324.011719 132.300781 324.597656 C 132.058594 325.605469 132.011719 326.675781 132.171875 327.710938 C 132.480469 329.78125 133.597656 331.707031 135.277344 332.984375 C 136.109375 333.628906 137.082031 334.09375 138.082031 334.367188 C 138.199219 334.394531 138.367188 334.445312 138.425781 334.453125 L 139.152344 334.617188 L 140.125 334.824219 L 143.996094 335.664062 C 146.59375 336.136719 149.179688 336.6875 151.800781 337.066406 C 162.238281 338.761719 172.808594 339.539062 183.378906 339.601562 C 193.953125 339.539062 204.523438 338.761719 214.960938 337.066406 C 217.574219 336.6875 220.167969 336.136719 222.765625 335.664062 L 226.636719 334.824219 L 227.605469 334.617188 L 228.089844 334.507812 L 228.335938 334.453125 C 228.402344 334.441406 228.570312 334.394531 228.683594 334.359375 C 229.6875 334.089844 230.65625 333.613281 231.492188 332.980469 C 233.167969 331.699219 234.28125 329.773438 234.589844 327.703125 C 234.730469 326.660156 234.683594 325.59375 234.449219 324.585938 Z M 156.097656 283.664062 C 156.871094 283.417969 157.671875 283.257812 158.453125 283.25 C 158.84375 283.265625 159.234375 283.269531 159.605469 283.332031 C 159.972656 283.398438 160.324219 283.5 160.660156 283.621094 C 162.007812 284.117188 163.019531 285.15625 163.683594 286.640625 L 163.753906 286.789062 C 163.847656 286.996094 163.972656 287.195312 164.128906 287.375 C 165.023438 288.417969 166.59375 288.535156 167.628906 287.632812 C 168.128906 287.199219 168.679688 286.898438 169.265625 286.742188 C 169.851562 286.585938 170.480469 286.597656 171.085938 286.769531 C 172.304688 287.113281 173.375 288.148438 173.945312 289.65625 L 173.988281 289.757812 C 174.296875 290.570312 175.136719 291.082031 176.019531 290.941406 C 177.039062 290.777344 177.722656 289.820312 177.5625 288.796875 C 177.355469 287.511719 176.863281 286.214844 176.035156 285.078125 C 175.207031 283.949219 174.046875 283 172.699219 282.4375 C 171.355469 281.863281 169.824219 281.679688 168.363281 281.9375 C 167.921875 282.011719 167.484375 282.121094 167.058594 282.269531 C 166.78125 281.878906 166.472656 281.5 166.128906 281.148438 C 165.125 280.085938 163.859375 279.253906 162.507812 278.726562 C 162.339844 278.664062 162.164062 278.605469 161.996094 278.550781 C 162.183594 278.152344 162.414062 277.773438 162.679688 277.414062 C 163.386719 276.464844 164.351562 275.695312 165.433594 275.175781 C 166.519531 274.660156 167.710938 274.375 168.890625 274.390625 C 170.066406 274.402344 171.234375 274.660156 172.316406 275.175781 C 172.335938 275.1875 172.371094 275.203125 172.398438 275.207031 C 173.671875 275.761719 175.144531 275.175781 175.691406 273.894531 L 175.765625 273.71875 C 176.121094 272.882812 176.695312 272.042969 177.515625 271.332031 C 178.324219 270.617188 179.3125 270.027344 180.382812 269.554688 C 182.53125 268.621094 184.996094 268.289062 187.375 268.511719 C 188.566406 268.632812 189.742188 268.898438 190.875 269.304688 C 192.007812 269.710938 193.089844 270.269531 194.105469 270.945312 C 194.886719 271.480469 195.636719 272.082031 196.335938 272.753906 C 196.175781 272.78125 196.019531 272.8125 195.859375 272.855469 C 194.746094 273.117188 193.664062 273.585938 192.71875 274.242188 C 191.769531 274.898438 190.96875 275.722656 190.324219 276.617188 C 189.898438 277.21875 189.570312 277.847656 189.292969 278.488281 C 189.078125 278.503906 188.863281 278.515625 188.644531 278.542969 C 187.804688 278.671875 186.976562 278.902344 186.230469 279.273438 C 184.71875 280.003906 183.535156 281.140625 182.667969 282.390625 C 182.363281 282.824219 182.363281 283.425781 182.699219 283.871094 C 183.117188 284.421875 183.898438 284.523438 184.445312 284.101562 L 184.519531 284.042969 C 185.5 283.277344 186.476562 282.640625 187.488281 282.285156 C 188.5 281.933594 189.535156 281.835938 190.558594 282.039062 C 191.582031 282.222656 192.59375 282.6875 193.496094 283.332031 C 194.398438 283.988281 195.179688 284.828125 195.765625 285.792969 L 195.816406 285.890625 C 196.09375 286.335938 196.632812 286.578125 197.171875 286.449219 C 197.835938 286.289062 198.25 285.613281 198.085938 284.941406 C 197.695312 283.332031 196.765625 281.917969 195.5625 280.828125 C 194.929688 280.246094 194.207031 279.761719 193.425781 279.375 C 193.472656 279.320312 193.519531 279.273438 193.570312 279.21875 C 194.03125 278.746094 194.53125 278.359375 195.070312 278.078125 C 195.601562 277.777344 196.195312 277.617188 196.800781 277.527344 C 197.40625 277.433594 198.046875 277.441406 198.691406 277.535156 C 199.980469 277.703125 201.257812 278.265625 202.320312 279.035156 C 203.386719 279.816406 204.167969 280.847656 204.542969 281.882812 L 204.558594 281.933594 C 204.96875 283.0625 206.105469 283.792969 207.339844 283.628906 C 208.515625 283.472656 209.660156 283.515625 210.71875 283.75 C 211.769531 284 212.71875 284.476562 213.5 285.15625 C 214.269531 285.847656 214.894531 286.726562 215.25 287.777344 C 215.398438 288.203125 215.507812 288.648438 215.574219 289.109375 L 213.84375 289.488281 C 203.835938 291.632812 193.609375 292.71875 183.347656 292.929688 C 173.089844 292.71875 162.855469 291.632812 152.851562 289.488281 L 151.140625 289.113281 C 151.328125 288.15625 151.683594 287.273438 152.230469 286.511719 C 153.148438 285.191406 154.5625 284.199219 156.097656 283.664062 Z M 229.410156 327.296875 C 229.332031 327.824219 229.027344 328.324219 228.617188 328.628906 C 228.410156 328.785156 228.179688 328.886719 227.921875 328.953125 C 227.875 328.96875 227.890625 328.96875 227.796875 328.988281 L 227.554688 329.035156 L 227.074219 329.136719 L 226.117188 329.339844 L 222.289062 330.136719 C 219.714844 330.585938 217.15625 331.105469 214.570312 331.457031 C 209.414062 332.28125 204.222656 332.84375 199.023438 333.261719 C 193.816406 333.683594 188.597656 333.824219 183.378906 333.863281 C 178.160156 333.824219 172.945312 333.683594 167.738281 333.261719 C 162.539062 332.84375 157.339844 332.28125 152.191406 331.457031 C 149.605469 331.105469 147.046875 330.585938 144.472656 330.136719 L 140.640625 329.339844 L 139.6875 329.136719 L 139.207031 329.035156 L 138.964844 328.988281 C 138.863281 328.96875 138.886719 328.960938 138.835938 328.953125 C 138.582031 328.894531 138.351562 328.785156 138.144531 328.628906 C 137.734375 328.324219 137.429688 327.824219 137.351562 327.304688 C 137.308594 327.039062 137.316406 326.777344 137.375 326.511719 C 137.375 326.457031 137.503906 326.039062 137.59375 325.742188 L 137.875 324.78125 L 140.117188 317.109375 L 144.59375 301.777344 L 145.710938 297.941406 L 146.273438 296.027344 C 146.359375 295.722656 146.492188 295.472656 146.675781 295.230469 C 147.03125 294.761719 147.605469 294.417969 148.21875 294.335938 C 148.371094 294.308594 148.527344 294.304688 148.683594 294.308594 C 148.757812 294.316406 148.835938 294.316406 148.910156 294.328125 L 149.027344 294.351562 L 149.253906 294.398438 L 151.246094 294.789062 C 161.859375 296.746094 172.648438 297.847656 183.402344 297.644531 C 194.15625 297.847656 204.941406 296.746094 215.554688 294.789062 L 217.554688 294.398438 L 217.789062 294.351562 L 217.898438 294.328125 C 217.964844 294.324219 218.039062 294.316406 218.113281 294.308594 C 218.273438 294.304688 218.429688 294.316406 218.582031 294.335938 C 219.191406 294.425781 219.761719 294.757812 220.125 295.238281 C 220.308594 295.472656 220.441406 295.742188 220.53125 296.035156 L 221.089844 297.949219 L 222.207031 301.785156 L 226.683594 317.117188 L 228.925781 324.78125 L 229.210938 325.742188 C 229.296875 326.039062 229.425781 326.464844 229.425781 326.519531 C 229.445312 326.769531 229.453125 327.035156 229.410156 327.296875 Z M 229.410156 327.296875 " fill-opacity="1" fill-rule="nonzero"/></g><path fill="#1c1c1c" d="M 183.628906 313.761719 C 179.144531 313.761719 173.535156 319.066406 174.398438 323.328125 C 175.699219 329.734375 180.917969 327.445312 183.628906 327.445312 C 186.996094 327.445312 191.042969 330.21875 192.863281 323.328125 C 193.964844 319.125 187.207031 313.761719 183.628906 313.761719 Z M 183.628906 313.761719 " fill-opacity="1" fill-rule="nonzero"/><path fill="#1c1c1c" d="M 174.917969 314.851562 C 174.917969 315.410156 174.828125 315.945312 174.652344 316.460938 C 174.476562 316.976562 174.222656 317.433594 173.898438 317.828125 C 173.570312 318.222656 173.195312 318.523438 172.765625 318.738281 C 172.339844 318.953125 171.898438 319.058594 171.433594 319.058594 C 170.972656 319.058594 170.53125 318.953125 170.101562 318.738281 C 169.675781 318.523438 169.300781 318.222656 168.972656 317.828125 C 168.648438 317.433594 168.394531 316.976562 168.21875 316.460938 C 168.042969 315.945312 167.953125 315.410156 167.953125 314.851562 C 167.953125 314.292969 168.042969 313.757812 168.21875 313.242188 C 168.394531 312.726562 168.648438 312.269531 168.972656 311.875 C 169.300781 311.480469 169.675781 311.179688 170.101562 310.964844 C 170.53125 310.75 170.972656 310.644531 171.433594 310.644531 C 171.898438 310.644531 172.339844 310.75 172.765625 310.964844 C 173.195312 311.179688 173.570312 311.480469 173.898438 311.875 C 174.222656 312.269531 174.476562 312.726562 174.652344 313.242188 C 174.828125 313.757812 174.917969 314.292969 174.917969 314.851562 Z M 174.917969 314.851562 " fill-opacity="1" fill-rule="nonzero"/><path fill="#1c1c1c" d="M 181.871094 308.085938 C 181.871094 308.644531 181.785156 309.183594 181.605469 309.699219 C 181.429688 310.214844 181.179688 310.667969 180.851562 311.0625 C 180.527344 311.457031 180.148438 311.761719 179.722656 311.976562 C 179.296875 312.1875 178.851562 312.296875 178.390625 312.296875 C 177.929688 312.296875 177.484375 312.1875 177.058594 311.976562 C 176.632812 311.761719 176.253906 311.457031 175.929688 311.0625 C 175.601562 310.667969 175.351562 310.214844 175.175781 309.699219 C 175 309.183594 174.910156 308.644531 174.910156 308.085938 C 174.910156 307.53125 175 306.992188 175.175781 306.476562 C 175.351562 305.960938 175.601562 305.507812 175.929688 305.113281 C 176.253906 304.71875 176.632812 304.414062 177.058594 304.199219 C 177.484375 303.988281 177.929688 303.878906 178.390625 303.878906 C 178.851562 303.878906 179.296875 303.988281 179.722656 304.199219 C 180.148438 304.414062 180.527344 304.71875 180.851562 305.113281 C 181.179688 305.507812 181.429688 305.960938 181.605469 306.476562 C 181.785156 306.992188 181.871094 307.53125 181.871094 308.085938 Z M 181.871094 308.085938 " fill-opacity="1" fill-rule="nonzero"/><path fill="#1c1c1c" d="M 198.78125 314.851562 C 198.78125 315.410156 198.691406 315.945312 198.515625 316.460938 C 198.339844 316.976562 198.085938 317.433594 197.761719 317.828125 C 197.433594 318.222656 197.058594 318.523438 196.632812 318.738281 C 196.203125 318.953125 195.761719 319.058594 195.300781 319.058594 C 194.835938 319.058594 194.394531 318.953125 193.96875 318.738281 C 193.539062 318.523438 193.164062 318.222656 192.835938 317.828125 C 192.511719 317.433594 192.257812 316.976562 192.082031 316.460938 C 191.90625 315.945312 191.816406 315.410156 191.816406 314.851562 C 191.816406 314.292969 191.90625 313.757812 192.082031 313.242188 C 192.257812 312.726562 192.511719 312.269531 192.835938 311.875 C 193.164062 311.480469 193.539062 311.179688 193.96875 310.964844 C 194.394531 310.75 194.835938 310.644531 195.300781 310.644531 C 195.761719 310.644531 196.203125 310.75 196.632812 310.964844 C 197.058594 311.179688 197.433594 311.480469 197.761719 311.875 C 198.085938 312.269531 198.339844 312.726562 198.515625 313.242188 C 198.691406 313.757812 198.78125 314.292969 198.78125 314.851562 Z M 198.78125 314.851562 " fill-opacity="1" fill-rule="nonzero"/><path fill="#1c1c1c" d="M 191.824219 308.085938 C 191.824219 308.644531 191.734375 309.183594 191.558594 309.699219 C 191.382812 310.214844 191.132812 310.667969 190.804688 311.0625 C 190.476562 311.457031 190.101562 311.761719 189.675781 311.976562 C 189.25 312.1875 188.804688 312.296875 188.34375 312.296875 C 187.882812 312.296875 187.4375 312.1875 187.011719 311.976562 C 186.585938 311.761719 186.207031 311.457031 185.882812 311.0625 C 185.554688 310.667969 185.304688 310.214844 185.128906 309.699219 C 184.949219 309.183594 184.863281 308.644531 184.863281 308.085938 C 184.863281 307.53125 184.949219 306.992188 185.128906 306.476562 C 185.304688 305.960938 185.554688 305.507812 185.882812 305.113281 C 186.207031 304.71875 186.585938 304.414062 187.011719 304.199219 C 187.4375 303.988281 187.882812 303.878906 188.34375 303.878906 C 188.804688 303.878906 189.25 303.988281 189.675781 304.199219 C 190.101562 304.414062 190.476562 304.71875 190.804688 305.113281 C 191.132812 305.507812 191.382812 305.960938 191.558594 306.476562 C 191.734375 306.992188 191.824219 307.53125 191.824219 308.085938 Z M 191.824219 308.085938 " fill-opacity="1" fill-rule="nonzero"/><g clip-path="url(#bd579ea51b)"><g clip-path="url(#468e96dbce)"><g clip-path="url(#155aafd087)"><g clip-path="url(#7f4ec742b9)"><path fill="#000000" d="M 232.539062 321.992188 C 229.4375 317.0625 230.269531 310.777344 234.335938 306.824219 L 218.347656 281.425781 C 213.023438 283.382812 206.996094 281.414062 203.894531 276.488281 C 200.332031 270.828125 202.035156 263.339844 207.695312 259.777344 C 209.957031 258.351562 212.617188 257.703125 215.238281 257.957031 C 216.179688 255.460938 217.878906 253.363281 220.179688 251.917969 C 225.835938 248.355469 233.324219 250.058594 236.886719 255.714844 C 239.988281 260.644531 239.15625 266.929688 235.089844 270.882812 L 251.082031 296.28125 C 256.402344 294.324219 262.429688 296.292969 265.53125 301.21875 C 269.09375 306.878906 267.394531 314.363281 261.734375 317.929688 C 259.46875 319.351562 256.8125 320.003906 254.1875 319.75 C 253.25 322.246094 251.546875 324.339844 249.28125 325.765625 C 243.589844 329.351562 236.101562 327.648438 232.539062 321.992188 Z M 220.183594 278.734375 L 237.558594 306.328125 C 237.976562 306.996094 237.8125 307.84375 237.1875 308.328125 C 233.476562 311.222656 232.554688 316.402344 235.070312 320.398438 C 237.753906 324.65625 243.394531 325.941406 247.65625 323.257812 C 249.652344 322 251.070312 320.039062 251.652344 317.71875 C 251.859375 316.9375 252.625 316.457031 253.417969 316.609375 C 255.761719 317.085938 258.144531 316.65625 260.140625 315.398438 C 264.402344 312.714844 265.683594 307.074219 263.003906 302.8125 C 260.488281 298.816406 255.417969 297.410156 251.203125 299.503906 C 250.496094 299.855469 249.660156 299.636719 249.242188 298.972656 L 231.871094 271.378906 C 231.449219 270.710938 231.613281 269.863281 232.238281 269.378906 C 235.96875 266.519531 236.871094 261.304688 234.355469 257.308594 C 231.675781 253.046875 226.03125 251.765625 221.769531 254.449219 C 219.773438 255.707031 218.359375 257.667969 217.773438 259.988281 C 217.566406 260.765625 216.800781 261.25 216.007812 261.097656 C 213.683594 260.65625 211.285156 261.050781 209.285156 262.308594 C 205.023438 264.992188 203.742188 270.632812 206.425781 274.894531 C 208.9375 278.886719 214.007812 280.296875 218.222656 278.203125 C 218.929688 277.851562 219.765625 278.066406 220.183594 278.734375 Z M 220.183594 278.734375 " fill-opacity="1" fill-rule="nonzero"/></g></g></g></g><g fill="#000000" fill-opacity="1"><g transform="translate(58.782632, 232.562324)"><g><path d="M 27.375 0.34375 C 27.257812 0.363281 27.148438 0.378906 27.046875 0.390625 C 26.953125 0.410156 26.847656 0.421875 26.734375 0.421875 C 26.285156 0.421875 25.894531 0.289062 25.5625 0.03125 C 25.226562 -0.21875 24.988281 -0.550781 24.84375 -0.96875 C 23.914062 -4 23.113281 -7.1875 22.4375 -10.53125 C 19.914062 -10.613281 17.390625 -10.65625 14.859375 -10.65625 C 12.359375 -10.65625 9.820312 -10.613281 7.25 -10.53125 C 6.9375 -8.894531 6.582031 -7.285156 6.1875 -5.703125 C 5.789062 -4.117188 5.359375 -2.539062 4.890625 -0.96875 C 4.742188 -0.519531 4.492188 -0.175781 4.140625 0.0625 C 3.796875 0.300781 3.425781 0.421875 3.03125 0.421875 C 2.800781 0.421875 2.5625 0.378906 2.3125 0.296875 C 1.382812 -0.015625 0.921875 -0.617188 0.921875 -1.515625 C 0.921875 -1.742188 0.960938 -1.984375 1.046875 -2.234375 C 2.203125 -6.078125 3.132812 -10.019531 3.84375 -14.0625 C 4.5625 -18.101562 5.078125 -22.203125 5.390625 -26.359375 L 4.96875 -26.40625 C 3.925781 -26.488281 3.40625 -27.050781 3.40625 -28.09375 C 3.40625 -28.644531 3.585938 -29.097656 3.953125 -29.453125 C 4.316406 -29.804688 4.769531 -29.953125 5.3125 -29.890625 C 5.894531 -29.835938 6.660156 -29.773438 7.609375 -29.703125 C 8.566406 -29.640625 9.597656 -29.585938 10.703125 -29.546875 C 11.816406 -29.503906 12.878906 -29.484375 13.890625 -29.484375 C 15.460938 -29.484375 16.976562 -29.535156 18.4375 -29.640625 C 19.90625 -29.753906 21.113281 -29.835938 22.0625 -29.890625 C 22.769531 -29.921875 23.296875 -29.753906 23.640625 -29.390625 C 23.992188 -29.023438 24.171875 -28.5625 24.171875 -28 C 24.484375 -23.539062 25.003906 -19.15625 25.734375 -14.84375 C 26.460938 -10.53125 27.441406 -6.328125 28.671875 -2.234375 C 28.734375 -2.117188 28.765625 -2.003906 28.765625 -1.890625 C 28.765625 -1.773438 28.765625 -1.664062 28.765625 -1.5625 C 28.765625 -0.601562 28.300781 0.03125 27.375 0.34375 Z M 7.921875 -14.0625 C 9.066406 -14.125 10.222656 -14.15625 11.390625 -14.15625 C 12.554688 -14.15625 13.710938 -14.15625 14.859375 -14.15625 C 16.015625 -14.15625 17.175781 -14.15625 18.34375 -14.15625 C 19.507812 -14.15625 20.648438 -14.125 21.765625 -14.0625 C 21.429688 -16.050781 21.132812 -18.054688 20.875 -20.078125 C 20.625 -22.109375 20.429688 -24.144531 20.296875 -26.1875 C 19.421875 -26.164062 18.398438 -26.125 17.234375 -26.0625 C 16.078125 -26.007812 14.960938 -25.984375 13.890625 -25.984375 C 12.316406 -25.984375 10.816406 -26.023438 9.390625 -26.109375 C 9.222656 -24.054688 9.019531 -22.03125 8.78125 -20.03125 C 8.539062 -18.039062 8.253906 -16.050781 7.921875 -14.0625 Z M 7.921875 -14.0625 "/></g></g></g><g fill="#000000" fill-opacity="1"><g transform="translate(88.514616, 232.562324)"><g><path d="M 20.34375 0.421875 C 19.300781 0.421875 18.695312 -0.109375 18.53125 -1.171875 C 18.445312 -2.097656 18.351562 -3.414062 18.25 -5.125 C 18.15625 -6.84375 18.109375 -8.601562 18.109375 -10.40625 C 18.109375 -11.582031 18.132812 -12.882812 18.1875 -14.3125 C 18.25 -15.75 18.304688 -17 18.359375 -18.0625 C 17.484375 -18.007812 16.445312 -17.960938 15.25 -17.921875 C 14.0625 -17.878906 12.894531 -17.859375 11.75 -17.859375 C 10.09375 -17.859375 8.519531 -17.898438 7.03125 -17.984375 C 7.113281 -16.992188 7.179688 -15.835938 7.234375 -14.515625 C 7.296875 -13.203125 7.328125 -11.84375 7.328125 -10.4375 C 7.328125 -9.257812 7.304688 -8.070312 7.265625 -6.875 C 7.222656 -5.6875 7.164062 -4.59375 7.09375 -3.59375 C 7.019531 -2.601562 6.941406 -1.796875 6.859375 -1.171875 C 6.804688 -0.671875 6.609375 -0.28125 6.265625 0 C 5.929688 0.28125 5.523438 0.421875 5.046875 0.421875 C 4.398438 0.421875 3.921875 0.21875 3.609375 -0.1875 C 3.304688 -0.59375 3.1875 -1.09375 3.25 -1.6875 C 3.332031 -2.550781 3.414062 -3.804688 3.5 -5.453125 C 3.582031 -7.097656 3.625 -8.757812 3.625 -10.4375 C 3.625 -11.90625 3.59375 -13.332031 3.53125 -14.71875 C 3.476562 -16.101562 3.410156 -17.273438 3.328125 -18.234375 L 2.734375 -18.28125 C 1.785156 -18.414062 1.3125 -18.945312 1.3125 -19.875 C 1.3125 -20.40625 1.472656 -20.816406 1.796875 -21.109375 C 2.117188 -21.410156 2.53125 -21.53125 3.03125 -21.46875 C 3.925781 -21.382812 5.1875 -21.296875 6.8125 -21.203125 C 8.445312 -21.109375 10.09375 -21.0625 11.75 -21.0625 C 13.320312 -21.0625 14.875 -21.113281 16.40625 -21.21875 C 17.9375 -21.332031 19.257812 -21.414062 20.375 -21.46875 C 20.96875 -21.5 21.429688 -21.316406 21.765625 -20.921875 C 22.109375 -20.535156 22.25 -20.046875 22.1875 -19.453125 C 22.101562 -18.492188 22.007812 -17.179688 21.90625 -15.515625 C 21.8125 -13.847656 21.765625 -12.144531 21.765625 -10.40625 C 21.765625 -8.6875 21.8125 -7.023438 21.90625 -5.421875 C 22.007812 -3.828125 22.101562 -2.582031 22.1875 -1.6875 C 22.25 -1.070312 22.109375 -0.566406 21.765625 -0.171875 C 21.429688 0.222656 20.957031 0.421875 20.34375 0.421875 Z M 20.34375 0.421875 "/></g></g></g><g fill="#000000" fill-opacity="1"><g transform="translate(113.824696, 232.562324)"><g><path d="M 1.59375 0.375 C 1.0625 0.4375 0.628906 0.335938 0.296875 0.078125 C -0.0351562 -0.171875 -0.203125 -0.632812 -0.203125 -1.3125 C -0.203125 -1.78125 -0.078125 -2.125 0.171875 -2.34375 C 0.421875 -2.570312 0.753906 -2.71875 1.171875 -2.78125 C 1.816406 -2.863281 2.691406 -2.953125 3.796875 -3.046875 C 4.910156 -3.148438 6.070312 -3.21875 7.28125 -3.25 C 7.195312 -4.257812 7.125 -5.421875 7.0625 -6.734375 C 7.007812 -8.054688 6.984375 -9.378906 6.984375 -10.703125 C 6.984375 -11.929688 7.019531 -13.195312 7.09375 -14.5 C 7.164062 -15.8125 7.226562 -16.941406 7.28125 -17.890625 C 7.144531 -17.867188 6.988281 -17.859375 6.8125 -17.859375 C 6.644531 -17.859375 6.476562 -17.859375 6.3125 -17.859375 C 5.664062 -17.878906 5.066406 -17.90625 4.515625 -17.9375 C 3.972656 -17.96875 3.503906 -18.007812 3.109375 -18.0625 C 2.660156 -18.125 2.320312 -18.300781 2.09375 -18.59375 C 1.875 -18.882812 1.765625 -19.210938 1.765625 -19.578125 C 1.765625 -20.023438 1.890625 -20.410156 2.140625 -20.734375 C 2.398438 -21.054688 2.78125 -21.21875 3.28125 -21.21875 C 3.675781 -21.21875 4.066406 -21.191406 4.453125 -21.140625 C 4.847656 -21.085938 5.359375 -21.0625 5.984375 -21.0625 C 6.628906 -21.0625 7.242188 -21.128906 7.828125 -21.265625 C 8.421875 -21.398438 8.882812 -21.46875 9.21875 -21.46875 C 9.75 -21.46875 10.195312 -21.304688 10.5625 -20.984375 C 10.925781 -20.660156 11.109375 -20.207031 11.109375 -19.625 C 11.054688 -18.695312 10.972656 -17.429688 10.859375 -15.828125 C 10.753906 -14.234375 10.703125 -12.523438 10.703125 -10.703125 C 10.703125 -9.316406 10.734375 -7.957031 10.796875 -6.625 C 10.867188 -5.289062 10.929688 -4.132812 10.984375 -3.15625 C 11.972656 -3.125 12.882812 -3.066406 13.71875 -2.984375 C 14.5625 -2.898438 15.222656 -2.832031 15.703125 -2.78125 C 16.628906 -2.632812 17.09375 -2.15625 17.09375 -1.34375 C 17.09375 -0.644531 16.914062 -0.164062 16.5625 0.09375 C 16.21875 0.363281 15.78125 0.457031 15.25 0.375 C 14.601562 0.289062 13.65625 0.207031 12.40625 0.125 C 11.15625 0.0390625 9.867188 0 8.546875 0 C 7.253906 0 5.945312 0.0390625 4.625 0.125 C 3.3125 0.207031 2.300781 0.289062 1.59375 0.375 Z M 7.109375 -25.734375 L 7.109375 -28.46875 C 7.109375 -29.082031 7.285156 -29.535156 7.640625 -29.828125 C 7.992188 -30.128906 8.4375 -30.28125 8.96875 -30.28125 C 9.53125 -30.28125 9.976562 -30.128906 10.3125 -29.828125 C 10.65625 -29.535156 10.828125 -29.082031 10.828125 -28.46875 L 10.828125 -25.734375 C 10.828125 -25.140625 10.65625 -24.6875 10.3125 -24.375 C 9.976562 -24.070312 9.53125 -23.921875 8.96875 -23.921875 C 8.4375 -23.921875 7.992188 -24.070312 7.640625 -24.375 C 7.285156 -24.6875 7.109375 -25.140625 7.109375 -25.734375 Z M 7.109375 -25.734375 "/></g></g></g><g fill="#000000" fill-opacity="1"><g transform="translate(130.122539, 232.562324)"><g><path d="M 28.96875 0.421875 C 27.925781 0.421875 27.320312 -0.109375 27.15625 -1.171875 C 27.070312 -2.097656 26.976562 -3.414062 26.875 -5.125 C 26.78125 -6.84375 26.734375 -8.601562 26.734375 -10.40625 C 26.734375 -11.71875 26.757812 -13.078125 26.8125 -14.484375 C 26.875 -15.890625 26.929688 -17.113281 26.984375 -18.15625 C 25.921875 -18.09375 24.679688 -18.03125 23.265625 -17.96875 C 21.847656 -17.914062 20.378906 -17.878906 18.859375 -17.859375 C 18.941406 -16.867188 19.007812 -15.710938 19.0625 -14.390625 C 19.125 -13.078125 19.15625 -11.707031 19.15625 -10.28125 C 19.15625 -8.476562 19.097656 -6.738281 18.984375 -5.0625 C 18.878906 -3.394531 18.785156 -2.097656 18.703125 -1.171875 C 18.640625 -0.703125 18.445312 -0.328125 18.125 -0.046875 C 17.800781 0.234375 17.398438 0.375 16.921875 0.375 C 16.304688 0.375 15.820312 0.1875 15.46875 -0.1875 C 15.125 -0.570312 14.992188 -1.070312 15.078125 -1.6875 C 15.160156 -2.550781 15.25 -3.773438 15.34375 -5.359375 C 15.445312 -6.953125 15.5 -8.59375 15.5 -10.28125 C 15.5 -11.738281 15.460938 -13.125 15.390625 -14.4375 C 15.316406 -15.757812 15.253906 -16.898438 15.203125 -17.859375 C 13.828125 -17.878906 12.453125 -17.90625 11.078125 -17.9375 C 9.703125 -17.96875 8.410156 -18.007812 7.203125 -18.0625 C 7.285156 -17.050781 7.351562 -15.863281 7.40625 -14.5 C 7.46875 -13.144531 7.5 -11.765625 7.5 -10.359375 C 7.5 -8.554688 7.445312 -6.804688 7.34375 -5.109375 C 7.25 -3.410156 7.160156 -2.097656 7.078125 -1.171875 C 6.910156 -0.140625 6.304688 0.375 5.265625 0.375 C 4.617188 0.375 4.132812 0.179688 3.8125 -0.203125 C 3.488281 -0.597656 3.351562 -1.09375 3.40625 -1.6875 C 3.488281 -2.582031 3.578125 -3.820312 3.671875 -5.40625 C 3.773438 -7 3.828125 -8.648438 3.828125 -10.359375 C 3.828125 -11.847656 3.789062 -13.289062 3.71875 -14.6875 C 3.65625 -16.09375 3.582031 -17.273438 3.5 -18.234375 L 2.78125 -18.28125 C 2.382812 -18.300781 2.039062 -18.46875 1.75 -18.78125 C 1.457031 -19.09375 1.3125 -19.457031 1.3125 -19.875 C 1.3125 -20.351562 1.476562 -20.742188 1.8125 -21.046875 C 2.144531 -21.359375 2.535156 -21.5 2.984375 -21.46875 C 3.910156 -21.414062 5.085938 -21.351562 6.515625 -21.28125 C 7.953125 -21.21875 9.519531 -21.164062 11.21875 -21.125 C 12.914062 -21.082031 14.609375 -21.0625 16.296875 -21.0625 C 17.898438 -21.0625 19.507812 -21.085938 21.125 -21.140625 C 22.738281 -21.191406 24.238281 -21.253906 25.625 -21.328125 C 27.007812 -21.398438 28.15625 -21.445312 29.0625 -21.46875 C 29.644531 -21.5 30.101562 -21.320312 30.4375 -20.9375 C 30.78125 -20.5625 30.910156 -20.066406 30.828125 -19.453125 C 30.742188 -18.492188 30.648438 -17.179688 30.546875 -15.515625 C 30.453125 -13.847656 30.40625 -12.144531 30.40625 -10.40625 C 30.40625 -8.6875 30.453125 -7.023438 30.546875 -5.421875 C 30.648438 -3.828125 30.742188 -2.582031 30.828125 -1.6875 C 30.878906 -1.070312 30.742188 -0.566406 30.421875 -0.171875 C 30.097656 0.222656 29.613281 0.421875 28.96875 0.421875 Z M 28.96875 0.421875 "/></g></g></g><g fill="#000000" fill-opacity="1"><g transform="translate(164.023734, 232.562324)"><g><path d="M 4.34375 0.421875 C 3.632812 0.421875 3.125 0.191406 2.8125 -0.265625 C 2.507812 -0.734375 2.414062 -1.234375 2.53125 -1.765625 C 2.582031 -2.242188 2.644531 -2.894531 2.71875 -3.71875 C 2.789062 -4.550781 2.828125 -5.40625 2.828125 -6.28125 C 2.828125 -7.175781 2.789062 -8.054688 2.71875 -8.921875 C 2.644531 -9.796875 2.582031 -10.472656 2.53125 -10.953125 C 2.53125 -11.003906 2.519531 -11.066406 2.5 -11.140625 C 2.488281 -11.210938 2.484375 -11.257812 2.484375 -11.28125 C 2.484375 -11.789062 2.648438 -12.21875 2.984375 -12.5625 C 3.328125 -12.914062 3.789062 -13.09375 4.375 -13.09375 C 4.882812 -13.09375 5.289062 -12.941406 5.59375 -12.640625 L 17.3125 -12.640625 C 17.332031 -13.554688 17.363281 -14.492188 17.40625 -15.453125 C 17.445312 -16.410156 17.5 -17.28125 17.5625 -18.0625 C 16.769531 -18.007812 15.90625 -17.960938 14.96875 -17.921875 C 14.03125 -17.878906 13.15625 -17.859375 12.34375 -17.859375 C 10.96875 -17.859375 9.632812 -17.910156 8.34375 -18.015625 C 7.050781 -18.128906 6.050781 -18.226562 5.34375 -18.3125 C 4.414062 -18.457031 3.953125 -18.960938 3.953125 -19.828125 C 3.953125 -20.421875 4.128906 -20.859375 4.484375 -21.140625 C 4.835938 -21.421875 5.28125 -21.53125 5.8125 -21.46875 C 6.457031 -21.382812 7.382812 -21.296875 8.59375 -21.203125 C 9.800781 -21.109375 11.050781 -21.0625 12.34375 -21.0625 C 13.601562 -21.0625 14.910156 -21.125 16.265625 -21.25 C 17.628906 -21.375 18.707031 -21.445312 19.5 -21.46875 C 20.113281 -21.5 20.601562 -21.316406 20.96875 -20.921875 C 21.332031 -20.535156 21.472656 -20.046875 21.390625 -19.453125 C 21.304688 -18.523438 21.222656 -17.234375 21.140625 -15.578125 C 21.054688 -13.921875 21.015625 -12.25 21.015625 -10.5625 C 21.015625 -9.019531 21.035156 -7.578125 21.078125 -6.234375 C 21.117188 -4.890625 21.179688 -3.753906 21.265625 -2.828125 C 21.378906 -2.828125 21.484375 -2.828125 21.578125 -2.828125 C 21.679688 -2.828125 21.773438 -2.8125 21.859375 -2.78125 C 22.804688 -2.695312 23.28125 -2.21875 23.28125 -1.34375 C 23.28125 -0.757812 23.125 -0.304688 22.8125 0.015625 C 22.507812 0.335938 22.09375 0.472656 21.5625 0.421875 C 20.96875 0.367188 20.179688 0.304688 19.203125 0.234375 C 18.222656 0.160156 17.160156 0.101562 16.015625 0.0625 C 14.878906 0.0195312 13.78125 0 12.71875 0 C 11.113281 0 9.546875 0.0664062 8.015625 0.203125 C 6.492188 0.347656 5.269531 0.421875 4.34375 0.421875 Z M 6.359375 -2.953125 C 7.253906 -3.003906 8.253906 -3.054688 9.359375 -3.109375 C 10.472656 -3.171875 11.59375 -3.203125 12.71875 -3.203125 C 13.5 -3.203125 14.3125 -3.191406 15.15625 -3.171875 C 16 -3.160156 16.816406 -3.128906 17.609375 -3.078125 C 17.546875 -3.890625 17.484375 -4.847656 17.421875 -5.953125 C 17.367188 -7.066406 17.332031 -8.226562 17.3125 -9.4375 L 6.40625 -9.4375 C 6.488281 -8.476562 6.53125 -7.453125 6.53125 -6.359375 C 6.53125 -5.796875 6.515625 -5.21875 6.484375 -4.625 C 6.453125 -4.039062 6.410156 -3.484375 6.359375 -2.953125 Z M 6.359375 -2.953125 "/></g></g></g><g fill="#000000" fill-opacity="1"><g transform="translate(188.617889, 232.562324)"><g><path d="M 1.3125 0.375 C 0.800781 0.4375 0.375 0.335938 0.03125 0.078125 C -0.300781 -0.171875 -0.46875 -0.632812 -0.46875 -1.3125 C -0.46875 -2.144531 0.0078125 -2.632812 0.96875 -2.78125 C 1.613281 -2.863281 2.5 -2.953125 3.625 -3.046875 C 4.75 -3.148438 5.910156 -3.21875 7.109375 -3.25 C 7.023438 -4.757812 6.945312 -6.582031 6.875 -8.71875 C 6.8125 -10.851562 6.78125 -12.988281 6.78125 -15.125 C 6.78125 -17.144531 6.804688 -19.15625 6.859375 -21.15625 C 6.921875 -23.164062 6.992188 -24.882812 7.078125 -26.3125 C 6.878906 -26.289062 6.679688 -26.28125 6.484375 -26.28125 C 6.285156 -26.28125 6.085938 -26.28125 5.890625 -26.28125 C 5.273438 -26.28125 4.679688 -26.300781 4.109375 -26.34375 C 3.535156 -26.382812 3.078125 -26.429688 2.734375 -26.484375 C 2.285156 -26.597656 1.945312 -26.796875 1.71875 -27.078125 C 1.5 -27.359375 1.390625 -27.679688 1.390625 -28.046875 C 1.390625 -28.523438 1.53125 -28.914062 1.8125 -29.21875 C 2.09375 -29.53125 2.457031 -29.6875 2.90625 -29.6875 C 3.101562 -29.6875 3.242188 -29.671875 3.328125 -29.640625 C 3.828125 -29.554688 4.613281 -29.515625 5.6875 -29.515625 C 6.382812 -29.515625 7.019531 -29.570312 7.59375 -29.6875 C 8.175781 -29.800781 8.71875 -29.859375 9.21875 -29.859375 C 9.78125 -29.859375 10.207031 -29.679688 10.5 -29.328125 C 10.800781 -28.972656 10.921875 -28.488281 10.859375 -27.875 C 10.773438 -27.03125 10.703125 -25.925781 10.640625 -24.5625 C 10.585938 -23.207031 10.539062 -21.710938 10.5 -20.078125 C 10.457031 -18.453125 10.4375 -16.800781 10.4375 -15.125 C 10.4375 -12.957031 10.472656 -10.800781 10.546875 -8.65625 C 10.617188 -6.507812 10.695312 -4.691406 10.78125 -3.203125 C 11.757812 -3.171875 12.65625 -3.113281 13.46875 -3.03125 C 14.289062 -2.945312 14.953125 -2.863281 15.453125 -2.78125 C 16.378906 -2.632812 16.84375 -2.128906 16.84375 -1.265625 C 16.84375 -0.617188 16.664062 -0.164062 16.3125 0.09375 C 15.96875 0.363281 15.539062 0.457031 15.03125 0.375 C 14.351562 0.289062 13.390625 0.207031 12.140625 0.125 C 10.898438 0.0390625 9.617188 0 8.296875 0 C 6.972656 0 5.660156 0.046875 4.359375 0.140625 C 3.054688 0.242188 2.039062 0.320312 1.3125 0.375 Z M 1.3125 0.375 "/></g></g></g><g fill="#000000" fill-opacity="1"><g transform="translate(216.370538, 232.562324)"><g><path d="M 5.171875 0.421875 C 4.554688 0.421875 4.054688 0.21875 3.671875 -0.1875 C 3.296875 -0.59375 3.125 -1.101562 3.15625 -1.71875 C 3.21875 -2.644531 3.28125 -3.8125 3.34375 -5.21875 C 3.414062 -6.625 3.472656 -8.15625 3.515625 -9.8125 C 3.554688 -11.46875 3.578125 -13.140625 3.578125 -14.828125 C 3.578125 -17.097656 3.546875 -19.253906 3.484375 -21.296875 C 3.429688 -23.347656 3.351562 -25.035156 3.25 -26.359375 L 2.859375 -26.40625 C 2.410156 -26.457031 2.039062 -26.628906 1.75 -26.921875 C 1.457031 -27.222656 1.3125 -27.613281 1.3125 -28.09375 C 1.3125 -28.707031 1.5 -29.175781 1.875 -29.5 C 2.25 -29.820312 2.707031 -29.953125 3.25 -29.890625 C 3.945312 -29.835938 4.84375 -29.773438 5.9375 -29.703125 C 7.03125 -29.640625 8.222656 -29.578125 9.515625 -29.515625 C 10.804688 -29.460938 12.082031 -29.4375 13.34375 -29.4375 C 14.53125 -29.4375 15.738281 -29.460938 16.96875 -29.515625 C 18.207031 -29.578125 19.375 -29.648438 20.46875 -29.734375 C 21.5625 -29.816406 22.472656 -29.867188 23.203125 -29.890625 C 23.898438 -29.921875 24.410156 -29.722656 24.734375 -29.296875 C 25.054688 -28.878906 25.175781 -28.347656 25.09375 -27.703125 C 25.039062 -27.003906 24.972656 -26.007812 24.890625 -24.71875 C 24.804688 -23.425781 24.765625 -22.09375 24.765625 -20.71875 C 24.765625 -19.34375 24.796875 -17.988281 24.859375 -16.65625 C 24.929688 -15.320312 25.007812 -14.273438 25.09375 -13.515625 C 25.175781 -12.898438 25 -12.359375 24.5625 -11.890625 C 24.132812 -11.429688 23.582031 -11.257812 22.90625 -11.375 C 22.0625 -11.457031 20.878906 -11.546875 19.359375 -11.640625 C 17.847656 -11.742188 16.28125 -11.796875 14.65625 -11.796875 C 13.414062 -11.796875 12.164062 -11.757812 10.90625 -11.6875 C 9.644531 -11.613281 8.519531 -11.535156 7.53125 -11.453125 C 7.507812 -9.460938 7.457031 -7.566406 7.375 -5.765625 C 7.289062 -3.972656 7.21875 -2.53125 7.15625 -1.4375 C 7.125 -0.875 6.925781 -0.421875 6.5625 -0.078125 C 6.195312 0.253906 5.734375 0.421875 5.171875 0.421875 Z M 7.28125 -26.0625 C 7.363281 -24.6875 7.429688 -23.035156 7.484375 -21.109375 C 7.546875 -19.191406 7.578125 -17.164062 7.578125 -15.03125 C 8.554688 -15.09375 9.671875 -15.148438 10.921875 -15.203125 C 12.171875 -15.253906 13.414062 -15.296875 14.65625 -15.328125 C 15.71875 -15.328125 16.820312 -15.296875 17.96875 -15.234375 C 19.125 -15.179688 20.125 -15.128906 20.96875 -15.078125 C 20.9375 -15.835938 20.894531 -16.726562 20.84375 -17.75 C 20.789062 -18.769531 20.765625 -19.757812 20.765625 -20.71875 C 20.765625 -21.644531 20.785156 -22.582031 20.828125 -23.53125 C 20.867188 -24.488281 20.914062 -25.363281 20.96875 -26.15625 C 19.988281 -26.09375 18.8125 -26.03125 17.4375 -25.96875 C 16.0625 -25.914062 14.695312 -25.890625 13.34375 -25.890625 C 12.332031 -25.890625 11.304688 -25.910156 10.265625 -25.953125 C 9.234375 -26.003906 8.238281 -26.039062 7.28125 -26.0625 Z M 7.28125 -26.0625 "/></g></g></g><g fill="#000000" fill-opacity="1"><g transform="translate(243.954735, 232.562324)"><g><path d="M 4.34375 0.421875 C 3.632812 0.421875 3.125 0.191406 2.8125 -0.265625 C 2.507812 -0.734375 2.414062 -1.234375 2.53125 -1.765625 C 2.582031 -2.242188 2.644531 -2.894531 2.71875 -3.71875 C 2.789062 -4.550781 2.828125 -5.40625 2.828125 -6.28125 C 2.828125 -7.175781 2.789062 -8.054688 2.71875 -8.921875 C 2.644531 -9.796875 2.582031 -10.472656 2.53125 -10.953125 C 2.53125 -11.003906 2.519531 -11.066406 2.5 -11.140625 C 2.488281 -11.210938 2.484375 -11.257812 2.484375 -11.28125 C 2.484375 -11.789062 2.648438 -12.21875 2.984375 -12.5625 C 3.328125 -12.914062 3.789062 -13.09375 4.375 -13.09375 C 4.882812 -13.09375 5.289062 -12.941406 5.59375 -12.640625 L 17.3125 -12.640625 C 17.332031 -13.554688 17.363281 -14.492188 17.40625 -15.453125 C 17.445312 -16.410156 17.5 -17.28125 17.5625 -18.0625 C 16.769531 -18.007812 15.90625 -17.960938 14.96875 -17.921875 C 14.03125 -17.878906 13.15625 -17.859375 12.34375 -17.859375 C 10.96875 -17.859375 9.632812 -17.910156 8.34375 -18.015625 C 7.050781 -18.128906 6.050781 -18.226562 5.34375 -18.3125 C 4.414062 -18.457031 3.953125 -18.960938 3.953125 -19.828125 C 3.953125 -20.421875 4.128906 -20.859375 4.484375 -21.140625 C 4.835938 -21.421875 5.28125 -21.53125 5.8125 -21.46875 C 6.457031 -21.382812 7.382812 -21.296875 8.59375 -21.203125 C 9.800781 -21.109375 11.050781 -21.0625 12.34375 -21.0625 C 13.601562 -21.0625 14.910156 -21.125 16.265625 -21.25 C 17.628906 -21.375 18.707031 -21.445312 19.5 -21.46875 C 20.113281 -21.5 20.601562 -21.316406 20.96875 -20.921875 C 21.332031 -20.535156 21.472656 -20.046875 21.390625 -19.453125 C 21.304688 -18.523438 21.222656 -17.234375 21.140625 -15.578125 C 21.054688 -13.921875 21.015625 -12.25 21.015625 -10.5625 C 21.015625 -9.019531 21.035156 -7.578125 21.078125 -6.234375 C 21.117188 -4.890625 21.179688 -3.753906 21.265625 -2.828125 C 21.378906 -2.828125 21.484375 -2.828125 21.578125 -2.828125 C 21.679688 -2.828125 21.773438 -2.8125 21.859375 -2.78125 C 22.804688 -2.695312 23.28125 -2.21875 23.28125 -1.34375 C 23.28125 -0.757812 23.125 -0.304688 22.8125 0.015625 C 22.507812 0.335938 22.09375 0.472656 21.5625 0.421875 C 20.96875 0.367188 20.179688 0.304688 19.203125 0.234375 C 18.222656 0.160156 17.160156 0.101562 16.015625 0.0625 C 14.878906 0.0195312 13.78125 0 12.71875 0 C 11.113281 0 9.546875 0.0664062 8.015625 0.203125 C 6.492188 0.347656 5.269531 0.421875 4.34375 0.421875 Z M 6.359375 -2.953125 C 7.253906 -3.003906 8.253906 -3.054688 9.359375 -3.109375 C 10.472656 -3.171875 11.59375 -3.203125 12.71875 -3.203125 C 13.5 -3.203125 14.3125 -3.191406 15.15625 -3.171875 C 16 -3.160156 16.816406 -3.128906 17.609375 -3.078125 C 17.546875 -3.890625 17.484375 -4.847656 17.421875 -5.953125 C 17.367188 -7.066406 17.332031 -8.226562 17.3125 -9.4375 L 6.40625 -9.4375 C 6.488281 -8.476562 6.53125 -7.453125 6.53125 -6.359375 C 6.53125 -5.796875 6.515625 -5.21875 6.484375 -4.625 C 6.453125 -4.039062 6.410156 -3.484375 6.359375 -2.953125 Z M 6.359375 -2.953125 "/></g></g></g><g fill="#000000" fill-opacity="1"><g transform="translate(268.5489, 232.562324)"><g><path d="M 5.21875 0.421875 C 4.601562 0.421875 4.125 0.21875 3.78125 -0.1875 C 3.445312 -0.59375 3.3125 -1.09375 3.375 -1.6875 C 3.457031 -2.550781 3.546875 -3.804688 3.640625 -5.453125 C 3.742188 -7.097656 3.796875 -8.757812 3.796875 -10.4375 C 3.796875 -11.957031 3.765625 -13.390625 3.703125 -14.734375 C 3.648438 -16.085938 3.582031 -17.238281 3.5 -18.1875 L 2.734375 -18.28125 C 1.785156 -18.414062 1.3125 -18.921875 1.3125 -19.796875 C 1.3125 -20.359375 1.476562 -20.789062 1.8125 -21.09375 C 2.144531 -21.40625 2.566406 -21.53125 3.078125 -21.46875 C 3.835938 -21.382812 4.90625 -21.296875 6.28125 -21.203125 C 7.65625 -21.109375 9.039062 -21.0625 10.4375 -21.0625 C 11.507812 -21.0625 12.539062 -21.085938 13.53125 -21.140625 C 14.53125 -21.191406 15.410156 -21.25 16.171875 -21.3125 L 16.296875 -22.015625 C 16.460938 -23.085938 17.035156 -23.625 18.015625 -23.625 C 18.753906 -23.625 19.273438 -23.410156 19.578125 -22.984375 C 19.890625 -22.566406 20.003906 -22.050781 19.921875 -21.4375 C 19.859375 -21.070312 19.789062 -20.523438 19.71875 -19.796875 C 19.65625 -19.066406 19.625 -18.363281 19.625 -17.6875 C 19.625 -17.007812 19.664062 -16.3125 19.75 -15.59375 C 19.832031 -14.882812 19.890625 -14.347656 19.921875 -13.984375 C 20.003906 -13.359375 19.875 -12.847656 19.53125 -12.453125 C 19.195312 -12.066406 18.722656 -11.875 18.109375 -11.875 C 17.628906 -11.875 17.21875 -12.015625 16.875 -12.296875 C 16.539062 -12.578125 16.347656 -12.96875 16.296875 -13.46875 C 16.210938 -13.894531 16.128906 -14.519531 16.046875 -15.34375 C 15.960938 -16.175781 15.921875 -16.984375 15.921875 -17.765625 L 15.921875 -18.109375 C 15.160156 -18.046875 14.300781 -17.988281 13.34375 -17.9375 C 12.394531 -17.882812 11.425781 -17.859375 10.4375 -17.859375 C 9.90625 -17.859375 9.363281 -17.863281 8.8125 -17.875 C 8.269531 -17.882812 7.734375 -17.90625 7.203125 -17.9375 C 7.285156 -16.957031 7.351562 -15.820312 7.40625 -14.53125 C 7.46875 -13.238281 7.5 -11.875 7.5 -10.4375 C 7.5 -9.257812 7.476562 -8.070312 7.4375 -6.875 C 7.394531 -5.6875 7.335938 -4.59375 7.265625 -3.59375 C 7.191406 -2.601562 7.113281 -1.796875 7.03125 -1.171875 C 6.976562 -0.671875 6.78125 -0.28125 6.4375 0 C 6.101562 0.28125 5.695312 0.421875 5.21875 0.421875 Z M 5.21875 0.421875 "/></g></g></g><g fill="#000000" fill-opacity="1"><g transform="translate(290.195123, 232.562324)"><g><path d="M 20.25 -8.375 C 19.6875 -8.375 19.253906 -8.53125 18.953125 -8.84375 L 15.078125 -8.84375 C 15.472656 -7.238281 16.238281 -5.925781 17.375 -4.90625 C 18.507812 -3.882812 19.945312 -3.175781 21.6875 -2.78125 C 22.5 -2.53125 22.90625 -2.050781 22.90625 -1.34375 C 22.90625 -0.84375 22.769531 -0.421875 22.5 -0.078125 C 22.238281 0.253906 21.84375 0.421875 21.3125 0.421875 C 21.226562 0.421875 21.140625 0.421875 21.046875 0.421875 C 20.960938 0.421875 20.867188 0.40625 20.765625 0.375 C 18.265625 -0.15625 16.210938 -1.21875 14.609375 -2.8125 C 13.015625 -4.414062 11.945312 -6.425781 11.40625 -8.84375 L 7.203125 -8.84375 C 7.171875 -7.300781 7.117188 -5.875 7.046875 -4.5625 C 6.984375 -3.257812 6.921875 -2.175781 6.859375 -1.3125 C 6.804688 -0.15625 6.21875 0.421875 5.09375 0.421875 C 3.75 0.421875 3.117188 -0.25 3.203125 -1.59375 C 3.285156 -2.519531 3.359375 -3.695312 3.421875 -5.125 C 3.492188 -6.5625 3.550781 -8.132812 3.59375 -9.84375 C 3.632812 -11.5625 3.65625 -13.265625 3.65625 -14.953125 L 3.625 -18.1875 C 3.457031 -18.1875 3.285156 -18.191406 3.109375 -18.203125 C 2.941406 -18.222656 2.773438 -18.25 2.609375 -18.28125 C 2.160156 -18.332031 1.832031 -18.5 1.625 -18.78125 C 1.414062 -19.0625 1.3125 -19.425781 1.3125 -19.875 C 1.3125 -20.9375 1.828125 -21.46875 2.859375 -21.46875 L 3.53125 -21.4375 C 3.507812 -22.75 3.460938 -23.96875 3.390625 -25.09375 C 3.316406 -26.21875 3.253906 -27.144531 3.203125 -27.875 C 3.140625 -28.519531 3.273438 -29.015625 3.609375 -29.359375 C 3.953125 -29.710938 4.445312 -29.890625 5.09375 -29.890625 C 6.1875 -29.890625 6.773438 -29.34375 6.859375 -28.25 C 6.921875 -27.46875 6.984375 -26.460938 7.046875 -25.234375 C 7.117188 -24.015625 7.1875 -22.664062 7.25 -21.1875 C 8.507812 -21.101562 9.953125 -21.0625 11.578125 -21.0625 C 13.398438 -21.0625 15.082031 -21.113281 16.625 -21.21875 C 18.175781 -21.332031 19.382812 -21.414062 20.25 -21.46875 C 20.925781 -21.5 21.425781 -21.320312 21.75 -20.9375 C 22.070312 -20.5625 22.191406 -20.039062 22.109375 -19.375 C 22.023438 -18.78125 21.953125 -18.128906 21.890625 -17.421875 C 21.835938 -16.722656 21.8125 -15.984375 21.8125 -15.203125 C 21.8125 -14.304688 21.835938 -13.421875 21.890625 -12.546875 C 21.953125 -11.679688 22.023438 -10.992188 22.109375 -10.484375 C 22.191406 -9.867188 22.078125 -9.367188 21.765625 -8.984375 C 21.460938 -8.609375 20.957031 -8.40625 20.25 -8.375 Z M 7.28125 -12.046875 L 18.234375 -12.046875 C 18.148438 -13.054688 18.109375 -14.109375 18.109375 -15.203125 C 18.109375 -16.210938 18.148438 -17.179688 18.234375 -18.109375 C 17.253906 -18.023438 16.179688 -17.960938 15.015625 -17.921875 C 13.847656 -17.878906 12.644531 -17.859375 11.40625 -17.859375 C 10.738281 -17.859375 10.050781 -17.863281 9.34375 -17.875 C 8.644531 -17.882812 7.957031 -17.90625 7.28125 -17.9375 C 7.3125 -17.457031 7.328125 -16.960938 7.328125 -16.453125 C 7.328125 -15.953125 7.328125 -15.453125 7.328125 -14.953125 C 7.328125 -14.472656 7.328125 -13.988281 7.328125 -13.5 C 7.328125 -13.007812 7.3125 -12.523438 7.28125 -12.046875 Z M 7.28125 -12.046875 "/></g></g></g></svg>